# xmcd CD database file
#
# Track frame offsets:
#	150
#	14122
#	32697
#	48807
#	63611
#	81572
#	97555
#	119857
#	133369
#	147523
#	158517
#
# Disc length: 2211 seconds
#
# Revision: 1
# Processed by: cddbd v1.5.2PL0 Copyright (c) Steve Scherf et al.
# Submitted via: CDex 1.51
#
DISCID=9d08a10b
DTITLE=MODERN EARL - Hot Damn
DYEAR=2014
DGENRE=Country
TTITLE0=Hot Damn
TTITLE1=Rules Of The Bar
TTITLE2=Cannon Fodder
TTITLE3=Backwoods Betty
TTITLE4=Hell or High Water
TTITLE5=Catfish And Titties
TTITLE6=Whiskey On The Table
TTITLE7=That Girl Can Drink
TTITLE8=Mama's Wise
TTITLE9=Hillbilly Band
TTITLE10=Dixie
EXTD=YEAR: 2014
EXTT0=
EXTT1=
EXTT2=
EXTT3=
EXTT4=
EXTT5=
EXTT6=
EXTT7=
EXTT8=
EXTT9=
EXTT10=
PLAYORDER=
